<?xml version="1.0" encoding="UTF-8"?><svg id="Layer_2" xmlns="http://www.w3.org/2000/svg" viewBox="0 0 315.64 315.64"><defs><style>.cls-1{fill:#ff7e33;}</style></defs><g id="Layer_1-2"><g><rect class="cls-1" x="83.95" y="83.95" width="147.74" height="147.74" rx="24.02" ry="24.02" transform="translate(-65.37 157.82) rotate(-45)"/><g><path class="cls-1" d="m314.66,59.65l-64.39,64.39c-1.46,1.46-4.03,1.27-5.74-.44l-7.89-7.89c-1.71-1.71-1.91-4.28-.44-5.74l64.39-64.39c1.46-1.46,4.03-1.27,5.74.44l7.89,7.89c1.71,1.71,1.91,4.28.44,5.74Z"/><path class="cls-1" d="m270.06,15.06l-64.39,64.39c-1.46,1.46-4.03,1.27-5.74-.44l-7.89-7.89c-1.71-1.71-1.91-4.28-.44-5.74L255.99.98c1.46-1.46,4.03-1.27,5.74.44l7.89,7.89c1.71,1.71,1.91,4.28.44,5.74Z"/><path class="cls-1" d="m292.36,37.35l-64.39,64.39c-1.46,1.46-4.03,1.27-5.74-.44l-7.89-7.89c-1.71-1.71-1.91-4.28-.44-5.74l64.39-64.39c1.46-1.46,4.03-1.27,5.74.44l7.89,7.89c1.71,1.71,1.91,4.28.44,5.74Z"/></g><g><path class="cls-1" d="m124.04,250.27l-64.39,64.39c-1.46,1.46-4.03,1.27-5.74-.44l-7.89-7.89c-1.71-1.71-1.91-4.28-.44-5.74l64.39-64.39c1.46-1.46,4.03-1.27,5.74.44l7.89,7.89c1.71,1.71,1.91,4.28.44,5.74Z"/><path class="cls-1" d="m79.45,205.67L15.06,270.06c-1.46,1.46-4.03,1.27-5.74-.44l-7.89-7.89c-1.71-1.71-1.91-4.28-.44-5.74l64.39-64.39c1.46-1.46,4.03-1.27,5.74.44l7.89,7.89c1.71,1.71,1.91,4.28.44,5.74Z"/><path class="cls-1" d="m101.75,227.97l-64.39,64.39c-1.46,1.46-4.03,1.27-5.74-.44l-7.89-7.89c-1.71-1.71-1.91-4.28-.44-5.74l64.39-64.39c1.46-1.46,4.03-1.27,5.74.44l7.89,7.89c1.71,1.71,1.91,4.28.44,5.74Z"/></g><g><path class="cls-1" d="m250.27,191.6l64.39,64.39c1.46,1.46,1.27,4.03-.44,5.74l-7.89,7.89c-1.71,1.71-4.28,1.91-5.74.44l-64.39-64.39c-1.46-1.46-1.27-4.03.44-5.74l7.89-7.89c1.71-1.71,4.28-1.91,5.74-.44Z"/><path class="cls-1" d="m205.67,236.19l64.39,64.39c1.46,1.46,1.27,4.03-.44,5.74l-7.89,7.89c-1.71,1.71-4.28,1.91-5.74.44l-64.39-64.39c-1.46-1.46-1.27-4.03.44-5.74l7.89-7.89c1.71-1.71,4.28-1.91,5.74-.44Z"/><path class="cls-1" d="m227.97,213.89l64.39,64.39c1.46,1.46,1.27,4.03-.44,5.74l-7.89,7.89c-1.71,1.71-4.28,1.91-5.74.44l-64.39-64.39c-1.46-1.46-1.27-4.03.44-5.74l7.89-7.89c1.71-1.71,4.28-1.91,5.74-.44Z"/></g><g><path class="cls-1" d="m59.65.98l64.39,64.39c1.46,1.46,1.27,4.03-.44,5.74l-7.89,7.89c-1.71,1.71-4.28,1.91-5.74.44L45.58,15.06c-1.46-1.46-1.27-4.03.44-5.74l7.89-7.89c1.71-1.71,4.28-1.91,5.74-.44Z"/><path class="cls-1" d="m15.06,45.58l64.39,64.39c1.46,1.46,1.27,4.03-.44,5.74l-7.89,7.89c-1.71,1.71-4.28,1.91-5.74.44L.98,59.65c-1.46-1.46-1.27-4.03.44-5.74l7.89-7.89c1.71-1.71,4.28-1.91,5.74-.44Z"/><path class="cls-1" d="m37.35,23.28l64.39,64.39c1.46,1.46,1.27,4.03-.44,5.74l-7.89,7.89c-1.71,1.71-4.28,1.91-5.74.44L23.28,37.35c-1.46-1.46-1.27-4.03.44-5.74l7.89-7.89c1.71-1.71,4.28-1.91,5.74-.44Z"/></g></g></g></svg>